<?xml version="1.0" standalone="no"?>
<!DOCTYPE svg PUBLIC "-//W3C//DTD SVG 20010904//EN"
 "http://www.w3.org/TR/2001/REC-SVG-20010904/DTD/svg10.dtd">
<svg version="1.0" xmlns="http://www.w3.org/2000/svg"
 width="246.000000pt" height="185.000000pt" viewBox="0 0 246.000000 185.000000"
 preserveAspectRatio="xMidYMid meet">

<g transform="translate(0.000000,185.000000) scale(0.100000,-0.100000)"
fill="#000000" stroke="none">
<path d="M0 915 l0 -905 1230 0 1229 0 1 905 0 905 -1230 0 -1230 0 0 -905z
m1371 826 c-8 -15 -9 -60 -3 -158 5 -76 9 -139 8 -140 -5 -7 -41 -6 -41 2 0 6
4 69 8 142 6 99 5 136 -4 151 -10 17 -10 23 1 37 11 14 15 14 28 2 11 -12 11
-19 3 -36z m-141 -37 c0 -15 -6 -24 -15 -24 -18 0 -30 24 -21 45 8 22 36 6 36
-21z m288 2 c-4 -31 -38 -34 -38 -3 0 29 7 37 27 30 8 -3 13 -15 11 -27z m-53
-96 c-8 -30 -17 -81 -21 -112 -5 -48 -10 -58 -25 -58 -11 0 -19 7 -19 15 0 29
69 219 76 212 2 -2 -3 -27 -11 -57z m-305 5 c0 -18 -5 -25 -20 -25 -15 0 -20
7 -20 25 0 18 5 25 20 25 15 0 20 -7 20 -25z m118 -60 c35 -107 36 -115 9
-115 -23 0 -25 5 -31 68 -3 37 -8 83 -11 102 -8 48 8 22 33 -55z m309 69 c7
-20 -11 -38 -31 -31 -9 4 -12 13 -9 26 6 25 31 28 40 5z m-372 -114 c30 -59
31 -70 6 -70 -14 0 -20 10 -24 43 -3 24 -9 51 -13 60 -14 36 7 14 31 -33z
m305 16 c-5 -15 -10 -38 -10 -51 0 -14 -9 -29 -20 -35 -28 -15 -26 8 6 71 26
53 42 62 24 15z m-237 -125 c52 -5 121 -5 169 0 45 5 83 8 85 5 2 -2 -21 -13
-52 -25 -95 -36 -243 -23 -310 26 -20 15 -20 15 0 9 11 -3 60 -10 108 -15z
m752 -61 c3 -5 1 -10 -4 -10 -6 0 -11 5 -11 10 0 6 2 10 4 10 3 0 8 -4 11 -10z
m55 -44 c0 -41 -10 -58 -26 -45 -8 6 -14 19 -14 27 0 13 3 12 16 -4 15 -18 15
-17 10 14 -3 18 -1 32 4 32 6 0 10 -11 10 -24z m-766 0 c18 -7 42 -26 54 -41
42 -54 23 -175 -37 -229 -12 -11 -21 -23 -21 -27 0 -5 29 -54 65 -109 65 -101
108 -140 153 -140 15 0 22 -6 22 -19 0 -10 9 -21 20 -24 17 -4 20 -14 20 -56
l0 -51 90 0 c79 0 90 -2 91 -17 1 -17 2 -17 6 0 4 15 20 17 155 17 l150 0 -4
55 c-3 54 -2 55 23 55 22 0 28 -6 33 -31 3 -17 6 -42 6 -55 0 -24 1 -24 110
-24 103 0 110 -1 110 -20 0 -19 -7 -20 -110 -20 l-110 0 0 -51 0 -51 31 26
c57 49 123 26 158 -53 11 -27 21 -62 21 -77 0 -40 -20 -99 -44 -129 -20 -25
-24 -26 -44 -14 -28 18 -28 25 3 69 34 49 44 130 21 165 -20 31 -54 32 -90 4
-43 -34 -56 -70 -56 -159 0 -84 -7 -95 -42 -63 -16 14 -18 34 -18 175 l0 159
-22 -3 c-21 -3 -23 -9 -26 -71 -3 -60 -5 -68 -20 -62 -68 28 -114 27 -159 -1
-23 -15 -31 -48 -13 -59 5 -3 26 1 46 10 42 17 97 20 124 5 49 -26 39 -119
-17 -155 -37 -23 -41 -35 -14 -42 23 -6 46 -52 33 -65 -21 -21 -57 -3 -79 38
-19 35 -31 44 -68 53 -49 12 -67 35 -54 68 10 28 33 29 66 3 49 -38 152 -14
153 36 0 22 -32 24 -85 8 -66 -21 -98 -13 -124 30 -55 88 3 165 116 153 l53
-6 0 30 0 29 -200 0 -200 0 0 -45 c0 -48 4 -52 34 -30 24 18 86 20 109 3 43
-32 34 -133 -13 -145 -27 -7 -25 -19 7 -66 21 -30 24 -42 16 -55 -5 -9 -15
-17 -20 -17 -13 0 -103 131 -103 149 0 31 13 46 40 46 48 0 74 42 50 80 -13
21 -56 -5 -89 -54 -22 -34 -26 -52 -29 -133 -2 -51 -7 -93 -10 -93 -4 0 -15 7
-24 14 -16 12 -18 33 -18 174 0 137 -2 161 -16 166 -9 3 -56 6 -105 6 l-89 0
0 -28 c0 -27 1 -27 61 -27 55 0 64 -3 82 -28 18 -23 22 -45 25 -147 4 -113 3
-120 -15 -120 -10 0 -24 5 -30 11 -8 8 -19 6 -42 -5 -41 -22 -107 -11 -138 22
-67 72 25 194 133 177 50 -7 58 5 19 31 -26 17 -68 13 -117 -12 l-27 -14 2 67
2 68 -175 0 -175 0 -3 -173 c-2 -173 -3 -173 -25 -170 -16 2 -23 11 -25 32
l-4 28 -34 -37 c-22 -25 -39 -35 -50 -31 -8 3 -21 6 -28 6 -17 0 -63 45 -87
85 -36 57 -18 151 36 193 43 34 76 28 124 -20 l41 -43 0 62 c0 46 -4 62 -16
67 -9 3 -114 6 -235 6 l-219 0 0 -137 c0 -157 9 -186 55 -191 63 -6 95 57 95
191 l0 78 28 -3 27 -3 3 -144 c1 -80 -2 -149 -7 -154 -11 -11 -51 13 -51 31 0
10 -7 9 -30 -3 -35 -18 -99 -19 -121 -2 -44 34 -54 67 -59 201 l-5 131 -151 3
c-146 2 -152 3 -147 22 5 19 14 20 139 20 121 0 134 -2 135 -17 1 -17 2 -17 6
-1 4 16 18 18 102 18 54 0 113 3 130 6 45 9 91 55 91 90 0 50 -69 252 -91 268
-25 17 -10 29 26 20 28 -7 42 -29 70 -116 11 -32 22 -58 25 -58 3 0 16 38 29
85 14 47 28 85 33 85 4 0 8 -6 8 -13 0 -20 -86 -310 -99 -334 -6 -12 -11 -23
-11 -25 0 -2 53 -3 118 -3 l117 0 -3 53 c-2 49 -1 52 22 52 26 0 36 -21 36
-77 l0 -33 150 0 c113 0 150 -3 151 -12 0 -10 2 -10 6 0 3 9 41 12 139 12 121
0 134 -2 134 -17 0 -13 5 -9 15 10 9 19 12 43 8 77 -5 47 -7 50 -35 50 -39 0
-97 25 -132 58 -15 15 -52 63 -80 107 -29 44 -60 86 -69 94 -15 12 -12 15 26
35 49 25 67 55 67 114 0 55 -20 103 -55 130 -36 29 -70 28 -100 -3 -24 -23
-25 -31 -26 -142 -1 -65 -4 -172 -8 -238 l-6 -120 -12 175 c-7 96 -16 221 -19
278 l-7 102 102 0 c64 0 114 -5 135 -14z m245 -4 c88 -44 93 -159 12 -261
l-29 -37 36 -55 c21 -30 50 -75 65 -99 31 -51 82 -90 115 -90 13 0 22 -6 22
-15 0 -18 -51 -20 -101 -4 -57 19 -98 57 -153 142 -29 45 -63 92 -74 103 l-20
21 38 12 c62 18 88 78 71 164 -14 76 -69 119 -126 97 -16 -6 -24 -3 -33 11 -7
10 -12 21 -12 24 0 3 35 5 78 5 54 0 87 -5 111 -18z m574 -25 c14 -21 13 -25
-3 -46 -11 -16 -20 -20 -24 -12 -4 6 -3 11 2 11 6 0 9 11 8 25 0 14 -7 25 -14
25 -7 0 -10 5 -7 10 10 16 22 12 38 -13z m-94 -47 c0 -10 -3 -8 -9 5 -12 27
-12 43 0 25 5 -8 9 -22 9 -30z m131 -80 c0 -38 -10 -38 -32 0 -17 30 -17 30 7
30 21 0 25 -5 25 -30z m-100 -11 c0 -6 -4 -7 -10 -4 -5 3 -10 11 -10 16 0 6 5
7 10 4 6 -3 10 -11 10 -16z m-1819 -46 c58 -34 59 -129 3 -171 l-26 -18 41
-79 c26 -49 59 -96 87 -121 46 -42 47 -62 2 -45 -39 15 -108 98 -145 177 -49
103 -63 97 -63 -27 0 -62 -2 -69 -20 -69 -19 0 -20 7 -20 167 0 141 -3 169
-17 185 -15 17 -13 18 56 18 51 0 82 -5 102 -17z m787 -170 c2 -178 2 -183
-18 -183 -19 0 -20 6 -20 167 0 144 -2 169 -17 186 -17 18 -16 18 17 15 l35
-3 3 -182z m1062 166 c0 -5 -4 -9 -10 -9 -5 0 -10 7 -10 16 0 8 5 12 10 9 6
-3 10 -10 10 -16z m70 -14 c7 -9 11 -18 8 -20 -9 -10 -38 7 -38 21 0 18 14 18
30 -1z m65 -61 c0 -11 -8 -20 -20 -22 -19 -3 -19 -2 -2 8 15 10 16 14 5 27
-11 14 -11 15 2 11 8 -2 15 -13 15 -24z m-1754 -14 c30 -17 49 -64 49 -127 0
-99 -56 -159 -123 -132 -36 15 -54 43 -62 94 -18 112 59 206 136 165z m425 2
c26 -17 34 -56 34 -156 0 -95 -7 -124 -24 -97 -4 5 -19 3 -35 -5 -75 -38 -137
61 -76 121 16 17 35 25 60 25 31 0 35 3 35 26 0 14 -5 34 -10 45 -14 25 -56
25 -70 -1 -13 -24 -30 -26 -30 -5 0 40 79 72 116 47z m1248 -8 c3 -9 6 -19 6
-24 0 -15 -31 -40 -48 -40 -13 0 -12 3 6 16 12 8 22 22 22 30 0 13 -3 13 -22
0 -33 -23 -40 -19 -15 8 26 28 43 32 51 10z m-254 -4 c0 -5 -5 -10 -11 -10 -5
0 -7 5 -4 10 3 6 8 10 11 10 2 0 4 -4 4 -10z m346 -82 c-9 -12 -16 -17 -16
-10 0 7 -4 10 -10 7 -5 -3 -10 1 -10 9 0 9 -4 16 -10 16 -5 0 -10 5 -10 11 0
13 42 1 52 -15 4 -6 8 2 9 19 1 23 3 25 6 8 2 -13 -3 -33 -11 -45z m-179 6
c-3 -3 -12 -4 -19 -1 -8 3 -5 6 6 6 11 1 17 -2 13 -5z m75 -26 c-9 -9 -15 -9
-24 0 -9 9 -7 12 12 12 19 0 21 -3 12 -12z m22 -14 c21 -8 21 -34 0 -34 -8 0
-12 5 -9 10 3 6 1 10 -4 10 -6 0 -11 5 -11 10 0 12 3 12 24 4z m-214 -14 c0
-5 -4 -10 -10 -10 -5 0 -10 5 -10 10 0 6 5 10 10 10 6 0 10 -4 10 -10z m120
-44 c0 14 3 15 12 6 8 -8 8 -17 0 -34 -6 -13 -11 -18 -11 -12 -1 6 -12 9 -26
7 -19 -4 -25 0 -30 20 -11 43 5 54 32 23 18 -22 23 -24 23 -10z m-1792 -316
c30 -28 36 -62 18 -97 -25 -49 -42 -58 -60 -31 -21 30 -20 45 4 58 13 7 20 21
20 40 0 25 -4 30 -23 30 -27 0 -71 -42 -86 -83 -6 -16 -11 -69 -11 -118 0 -92
-4 -99 -41 -79 -17 10 -19 23 -19 150 l0 140 30 0 c17 0 30 -5 30 -10 0 -6 12
-4 28 4 39 21 84 20 110 -4z m917 -5 c29 -28 32 -70 8 -105 -26 -38 -36 -42
-55 -19 -20 23 -24 49 -8 49 16 0 41 46 34 64 -9 23 -47 20 -72 -7 -37 -40
-52 -91 -52 -182 0 -89 -6 -100 -43 -72 -15 11 -17 29 -15 147 3 134 3 135 27
138 13 2 27 -1 31 -7 5 -8 15 -7 36 4 43 22 81 19 109 -10z"/>
<path d="M750 421 c-34 -33 -45 -68 -36 -115 13 -70 63 -72 116 -6 39 50 50
103 25 130 -27 29 -71 26 -105 -9z"/>
<path d="M1344 350 c-24 -10 -64 -57 -64 -75 0 -15 22 -25 57 -25 38 0 113 47
113 70 0 34 -57 50 -106 30z"/>
<path d="M171 1067 c-6 -6 -11 -39 -11 -74 0 -71 12 -84 56 -64 57 26 56 114
-2 137 -23 10 -34 10 -43 1z"/>
<path d="M421 954 c-30 -38 -30 -150 -1 -182 12 -12 24 -22 28 -22 61 1 71
189 12 220 -15 8 -23 4 -39 -16z"/>
<path d="M855 835 c-30 -29 -31 -36 -7 -65 16 -19 22 -21 40 -11 18 9 22 21
22 56 0 53 -17 59 -55 20z"/>
</g>
</svg>
